<svg width="164" height="102" viewBox="0 0 164 102" fill="none" xmlns="http://www.w3.org/2000/svg">
<circle cx="50" cy="51" r="4" fill="white"/>
<circle cx="82" cy="51" r="4" fill="white"/>
<circle cx="114" cy="51" r="4" fill="white"/>
<path d="M162 51C162 64.1401 153.43 76.3434 138.926 85.3641C124.452 94.3666 104.331 100 82 100C59.6694 100 39.548 94.3666 25.0735 85.3641C10.5696 76.3434 2 64.1401 2 51C2 37.8599 10.5696 25.6566 25.0735 16.6359C39.548 7.63345 59.6694 2 82 2C104.331 2 124.452 7.63345 138.926 16.6359C153.43 25.6566 162 37.8599 162 51Z" stroke="white" stroke-width="4"/>
</svg>
