<svg width="444" height="780" viewBox="0 0 444 780" fill="none" xmlns="http://www.w3.org/2000/svg">
<path d="M319.305 718.014C413.251 631.519 439.63 574.632 353.365 488.217C346.486 481.326 334.905 483.672 330.936 492.562C328.316 498.432 329.989 505.314 334.808 509.567C402.069 568.924 390.795 616.426 301.539 697.788C292.474 706.051 298.129 721.5 310.395 721.5C313.679 721.5 316.889 720.238 319.305 718.014Z" fill="black"/>
<path d="M132.073 391.342C133.492 374.405 128.864 356.57 122.257 340.911C118.879 332.904 117 324.023 117 314.674C117 279.328 143.863 250.674 177 250.674C198.907 250.674 218.072 263.197 228.546 281.899C238.12 298.994 251.536 316.239 269.457 324.161C285.924 331.439 301.859 342.215 315.979 356.335C365.35 405.705 373.832 477.269 334.924 516.176C296.017 555.083 224.453 546.602 175.083 497.231C144.018 466.167 129.142 426.316 132.073 391.342Z" fill="black"/>
<path d="M141.851 604.799C171.904 607.409 228.664 583.786 221.382 576.59C201.668 543.733 195.206 514.531 227.272 492.455C334.306 418.768 396.41 546.539 281.456 561.866C281.456 561.866 300.278 587.171 259.25 608.362C245.382 616.677 201.047 634.992 153 637.174C104.001 651.174 109.501 595.174 141.851 604.799Z" fill="black"/>
<ellipse cx="142.93" cy="622.272" rx="7.73777" ry="12.0365" transform="rotate(-10.9833 142.93 622.272)" fill="#ED5A51" fill-opacity="0.6"/>
<ellipse cx="127.979" cy="613.343" rx="3.06475" ry="4.76739" transform="rotate(-49.7896 127.979 613.343)" fill="#ED5A51" fill-opacity="0.6"/>
<ellipse rx="3.06475" ry="4.76739" transform="matrix(0.274306 0.961642 0.961642 -0.274306 129.425 630.929)" fill="#ED5A51" fill-opacity="0.6"/>
<ellipse rx="3.06475" ry="4.76739" transform="matrix(-0.0234474 0.999725 0.999725 0.0234474 124.839 622.85)" fill="#ED5A51" fill-opacity="0.6"/>
<path d="M58 476.674C58.0007 459.674 122.81 447.298 139.5 382.674L170 424.174C147.577 457.459 129.745 473.352 100 485.174C81.5 492.526 57.9993 493.674 58 476.674Z" fill="black"/>
<mask id="mask0" mask-type="alpha" maskUnits="userSpaceOnUse" x="58" y="382" width="112" height="109">
<path d="M58 476.674C58.0007 459.674 122.81 447.298 139.5 382.674L170 424.174C147.577 457.459 129.745 473.352 100 485.174C81.5 492.526 57.9993 493.674 58 476.674Z" fill="black"/>
</mask>
<g mask="url(#mask0)">
<path d="M65.0477 492.674C65.0477 492.674 59.8336 483.808 62.0477 478.674C63.6915 474.862 70.0477 471.674 70.0477 471.674" stroke="#1C1A6E" stroke-width="3" stroke-linecap="round" stroke-linejoin="round"/>
<path d="M74.0477 497.674C74.0477 497.674 68.8336 488.808 71.0477 483.674C72.6915 479.862 79.0477 476.674 79.0477 476.674" stroke="#1C1A6E" stroke-width="3" stroke-linecap="round" stroke-linejoin="round"/>
</g>
<path d="M180.829 484.035C176.43 467.614 235.828 438.887 235.223 372.145L252.279 387.503L275.5 404.174C262.456 442.129 249.269 462.258 223.598 481.375C207.631 493.265 185.228 500.456 180.829 484.035Z" fill="black"/>
<path d="M235.223 372.145C235.828 438.887 176.43 467.614 180.829 484.035C185.228 500.456 207.631 493.265 223.598 481.375C249.269 462.258 262.456 442.129 275.5 404.174" stroke="#1C1A6E" stroke-width="3"/>
<mask id="mask1" mask-type="alpha" maskUnits="userSpaceOnUse" x="156" y="364" width="137" height="134">
<path d="M180.829 484.035C176.43 467.614 235.828 438.887 235.223 372.145L275.5 404.174C262.456 442.129 249.269 462.258 223.598 481.375C207.631 493.265 185.228 500.456 180.829 484.035Z" fill="black"/>
</mask>
<g mask="url(#mask1)">
<path d="M191.778 497.667C191.778 497.667 184.447 490.453 185.256 484.921C185.858 480.813 191.172 476.088 191.172 476.088" stroke="#1C1A6E" stroke-width="3" stroke-linecap="round" stroke-linejoin="round"/>
<path d="M201.765 500.167C201.765 500.167 194.434 492.953 195.244 487.421C195.845 483.313 201.16 478.588 201.16 478.588" stroke="#1C1A6E" stroke-width="3" stroke-linecap="round" stroke-linejoin="round"/>
</g>
<path d="M378.703 274.292C389.016 302.685 380.878 363.707 372.03 358.53C335.14 347.976 305.219 349.294 292.177 386.032C248.645 508.658 388.326 535.613 373.358 420.451C373.358 420.451 402.712 432.099 412.576 386.923C417.024 371.354 422.84 324.714 412.498 277.675C416.998 226.675 361.501 245.175 378.703 274.292Z" fill="black"/>
<ellipse rx="7.74835" ry="12.053" transform="matrix(0.0700481 0.997544 0.997544 -0.0700481 395.885 270.807)" fill="#ED5A51" fill-opacity="0.6"/>
<ellipse rx="3.06894" ry="4.77391" transform="matrix(-0.746751 0.665104 0.665104 0.746751 382.468 259.28)" fill="#ED5A51" fill-opacity="0.6"/>
<ellipse cx="402.075" cy="256.021" rx="3.06894" ry="4.77391" transform="rotate(13.146 402.075 256.021)" fill="#ED5A51" fill-opacity="0.6"/>
<ellipse cx="391.96" cy="253.964" rx="3.06894" ry="4.77391" transform="rotate(-11.5059 391.96 253.964)" fill="#ED5A51" fill-opacity="0.6"/>
<path d="M328.5 484.174C330.196 482.168 330.998 480.869 332 478.174M328.5 484.174C329.049 487.284 328.644 488.594 327.5 490.674M328.5 484.174C331.286 484.622 332.598 485.061 334.5 486.174M328.5 484.174C327.918 481.527 327.076 480.476 325 479.174M328.5 484.174C326.261 484.261 324.946 484.677 322.5 486.174" stroke="#1C1A6E" stroke-width="3" stroke-linecap="round" stroke-linejoin="round"/>
<path d="M181.097 329.044L182.96 321.901L190.09 325.826L192.662 331.592C193.796 334.136 192.585 337.113 189.997 338.142C187.484 339.141 184.637 337.916 183.635 335.404L181.097 329.044Z" fill="#ED5A51" fill-opacity="0.6"/>
<path d="M171.732 313.827C174.123 316.214 175.593 317.004 181.291 317.161M181.291 317.161C184.954 313.181 185.571 311.487 185.714 307.85M181.291 317.161L182.96 321.901M182.96 321.901C181.734 324.319 181.211 330.378 178.773 332.183M182.96 321.901C185.808 322.648 190.971 326.603 193.728 325.969" stroke="#1C1A6E" stroke-width="3" stroke-linecap="round" stroke-linejoin="round"/>
<path d="M107.068 263.889C113.963 264.105 131.425 265.741 135.959 276.636C139.591 285.366 132.5 290.105 126.903 292.39C123.553 293.758 119.96 291.926 118.349 288.686C115.002 281.956 109.341 270.867 106.043 266.044C105.51 265.265 106.125 263.86 107.068 263.889Z" fill="black" stroke="black" stroke-width="4"/>
<path d="M125.949 290.367C122.599 291.735 119.007 289.903 117.395 286.663C114.081 279.998 109.132 270.406 106.054 266.005C105.52 265.241 106.106 263.93 107.034 264.017C111.753 264.458 117.154 266.262 122.354 269.402C132.894 275.764 140.905 284.262 125.949 290.367Z" fill="#ED5A51" fill-opacity="0.6"/>
<path d="M194.033 229.061C189.084 233.866 177.284 246.842 181.276 257.947C184.475 266.845 192.908 265.568 198.583 263.485C201.981 262.238 203.4 258.464 202.408 254.984C200.345 247.757 197.056 235.748 196.242 229.962C196.111 229.027 194.71 228.404 194.033 229.061Z" fill="black" stroke="black" stroke-width="4"/>
<path d="M197.925 261.347C201.322 260.1 202.742 256.326 201.749 252.846C199.707 245.688 196.9 235.266 196.208 229.94C196.088 229.016 194.772 228.442 194.144 229.132C190.955 232.638 188.18 237.61 186.453 243.434C182.954 255.238 182.761 266.914 197.925 261.347Z" fill="#ED5A51" fill-opacity="0.6"/>
<path d="M150.255 294.355C155.787 294.135 162.022 302.638 162.022 302.638C162.022 302.638 155.726 306.178 151.411 305.779C146.757 305.348 140.796 300.002 140.796 300.002C140.796 300.002 145.962 294.526 150.255 294.355Z" fill="#EDCE39"/>
<ellipse cx="151.126" cy="299.333" rx="2" ry="5" transform="rotate(-5.75979 151.126 299.333)" fill="black"/>
<path d="M190.262 280.364C186.109 284.025 187.474 294.481 187.474 294.481C187.474 294.481 194.471 292.693 197.316 289.423C200.384 285.898 201.003 277.914 201.003 277.914C201.003 277.914 193.485 277.522 190.262 280.364Z" fill="#EDCE39"/>
<ellipse cx="192.855" cy="284.382" rx="2" ry="5" transform="rotate(-23.9049 192.855 284.382)" fill="black"/>
</svg>
