<svg width="88" height="88" viewBox="0 0 88 88" fill="none" xmlns="http://www.w3.org/2000/svg">
<rect x="2" y="2" width="84" height="84" rx="10" fill="#3AA11F"/>
<rect x="4" y="12" width="80" height="72" rx="8" fill="#4CED21"/>
<path fill-rule="evenodd" clip-rule="evenodd" d="M44 26C44.5523 26 45 26.4477 45 27V41C45 41.5523 44.5523 42 44 42C43.4477 42 43 41.5523 43 41V27C43 26.4477 43.4477 26 44 26Z" fill="#3C39EC" stroke="#3C39EC" stroke-width="2" stroke-linecap="round" stroke-linejoin="round"/>
<path d="M49.5 62C49.5 65.0376 47.0376 67.5 44 67.5C40.9624 67.5 38.5 65.0376 38.5 62C38.5 58.9624 40.9624 56.5 44 56.5C47.0376 56.5 49.5 58.9624 49.5 62ZM44 70.5C48.6944 70.5 52.5 66.6944 52.5 62C52.5 57.3056 48.6944 53.5 44 53.5C39.3056 53.5 35.5 57.3056 35.5 62C35.5 66.6944 39.3056 70.5 44 70.5Z" fill="#3C39EC" stroke="#3C39EC"/>
<rect x="2" y="2" width="84" height="84" rx="10" stroke="#2C2AAD" stroke-width="4"/>
</svg>